<?xml version="1.0" encoding="UTF-8" standalone="no"?>
<svg  width="1800" height="750" xmlns="http://www.w3.org/2000/svg" font-family="Liberation Sans,sans-serif" text-anchor="middle" fill="black" font-size="35">

<rect width="1800" height="750" stroke="none" fill="#f4f4f4"/>

<rect x="100" y="55" width="1700" height="480" fill="#f8fff8"/>

<path stroke="#aaa" stroke-width="2" d="
M100,0 v535
M695,0 v535

M945,0 v295 M945,375 v80
M1045,0 v295 M1045,375 v80
M1145,0 v295 M1145,375 v80
M1245,0 v295 M1245,375 v80

M1345,0 v455
 M1345,495 v40
M1445,0 v455
 M1445,495 v40
M1545,0 v455
 M1545,495 v40
"/>

<rect x="500" y="55" width="194" height="120" fill="yellow"/>
<rect x="696" y="55" width="448" height="120" fill="#dec"/>

<g transform="translate(600,50)" fill="#d02" font-weight="bold">
<text y="40">200</text>
<text y="80">150</text>
<text y="120">20</text>
</g>

<g font-weight="bold" font-size="30" fill="#27b" transform="translate(0,40)">
<text x="600">A</text>
<text x="820">B</text>
<text x="995">C</text>
<text x="1095">D</text>
<text x="1195">E</text>
<text x="1295">F</text>
<text x="1395">G</text>
<text x="1495">H</text>
</g>

<g transform="translate(700,50)" text-anchor="start">
<text y="40">◄ Horizontal coordinate</text>
<text y="80">◄ Vertical coordinate</text>
<text y="120">◄ Radius of circle</text>
</g>

   <g transform="translate(125,250)" text-anchor="start" fill="#666">

<text x="365" y="-160" font-style="italic" text-anchor="end">From user inputs:</text>

<text x="35" font-style="italic" font-weight="bold">Two-step approach:</text>
<text y="40">1. Assemble elements:</text>
<text y="80">2. Simplified concatenation:</text>
<text x="550" y="120" text-anchor="end" fill="#128">Resulting SVG code:</text>

<text x="35" y="200" font-style="italic" font-weight="bold">One-step approach:</text>
<text y="240">1. Assemble + concatenate:</text>
<text x="550" y="280" text-anchor="end" fill="#128">Resulting SVG code:</text>

   </g>

<g transform="translate(696,336)" fill="#f0f0ff">
<rect width="648" height="39"/>
<rect y="160" width="648" height="39"/>
</g>

<path stroke="#aaa" stroke-width="2" d="
M0,55 h1800
M0,95 h1800
M0,135 h1800
M0,175 h1800
M0,215 h1800
M0,255 h1800
M0,295 h1800
M100,335 h1800
M0,375 h1800
M0,415 h1800
M0,455 h1800
M100,495 h1800
M0,535 h1800
"/>

<g font-size="25" fill="#d02">
<text transform="translate(1035,245) rotate(-45)">(200)</text>
<text transform="translate(1235,245) rotate(-45)">(150)</text>
<text transform="translate(1435,250) rotate(-45)">(20)</text>
</g>

   <g transform="translate(700,290)" text-anchor="start">
<text>&lt;circle cx="</text>
<text x="250">=A1</text>
<text x="350">" cy="</text>
<text x="450">=A2</text>
<text x="550">" r="</text>
<text x="650">=A3</text>
<text x="750">"/&gt;</text>
   </g>

   <g text-anchor="start">

<text x="700" y="330">= B6 &amp; C6 &amp; D6 &amp; E6 &amp; F6 &amp; G6 &amp; H6</text>
<text x="700" y="370" fill="#128">&lt;circle cx="200" cy="150" r="20"/&gt;</text>

<text x="700" y="490">="&lt;circle cx=""" &amp;A1&amp; """ cy=""" &amp;A2&amp; """ r=""" &amp;A3&amp; """/&gt;"</text>
<text x="700" y="530" fill="#128">&lt;circle cx="200" cy="150" r="20"/&gt;</text>

   </g>

<g font-size="55" transform="translate(900,610)">
<text>Using spreadsheet's concatenate function ("&amp;")</text>
<text y="65">to automatically create SVG code</text>
<text y="120" font-size="25">(this example: circle centered at x=200 and y=150 with radius of 20 pixels)</text>
</g>

<g transform="translate(50,50)" font-weight="bold" font-size="30" fill="#27b">
<text y="40">1</text>
<text y="80">2</text>
<text y="120">3</text>
<text y="160">4</text>
<text y="200">5</text>
<text y="240">6</text>
<text y="295">7</text>
<text y="360">8</text>
<text y="400">9</text>
<text y="455">10</text>
</g>

</svg>
